<svg id="visual" viewBox="0 0 900 600" width="900" height="600" xmlns="http://www.w3.org/2000/svg" xmlns:xlink="http://www.w3.org/1999/xlink" version="1.1"><g transform="translate(466.24379097536166 332.52518229802087)"><path d="M134.7 -159.2C199.2 -138.5 293.1 -132.1 324.9 -92C356.6 -51.8 326.2 22.1 281.6 70.5C237 118.8 178.1 141.5 128.8 164.2C79.5 186.8 39.8 209.4 3.4 204.8C-33.1 200.2 -66.1 168.4 -137.5 152.9C-208.8 137.4 -318.4 138.2 -355.1 98.2C-391.8 58.1 -355.7 -22.9 -320.6 -95.9C-285.5 -169 -251.5 -234.2 -198.2 -258.5C-145 -282.9 -72.5 -266.4 -18.7 -240.7C35.1 -214.9 70.1 -179.9 134.7 -159.2" fill="#0066FF"></path></g></svg>